<?xml version="1.0" encoding="UTF-8" standalone="no"?>
<!-- Created with Inkscape (http://www.inkscape.org/) -->

<svg
   xmlns:dc="http://purl.org/dc/elements/1.1/"
   xmlns:cc="http://creativecommons.org/ns#"
   xmlns:rdf="http://www.w3.org/1999/02/22-rdf-syntax-ns#"
   xmlns:svg="http://www.w3.org/2000/svg"
   xmlns="http://www.w3.org/2000/svg"
   xmlns:sodipodi="http://sodipodi.sourceforge.net/DTD/sodipodi-0.dtd"
   xmlns:inkscape="http://www.inkscape.org/namespaces/inkscape"
   width="1052.3622"
   height="744.09448"
   id="svg2"
   version="1.1"
   inkscape:version="0.48.3.1 r9886"
   sodipodi:docname="inkscape_default.svg">
  <defs
     id="defs4">
    <marker
       inkscape:stockid="EmptyTriangleOutL"
       orient="auto"
       refY="0"
       refX="0"
       id="EmptyTriangleOutL"
       style="overflow:visible">
      <path
         id="path4115"
         d="m 5.77,0 -8.65,5 0,-10 8.65,5 z"
         style="fill:#ffffff;fill-rule:evenodd;stroke:#000000;stroke-width:1pt"
         transform="matrix(0.8,0,0,0.8,-4.8,0)"
         inkscape:connector-curvature="0" />
    </marker>
    <marker
       inkscape:stockid="EmptyTriangleInL"
       orient="auto"
       refY="0"
       refX="0"
       id="EmptyTriangleInL"
       style="overflow:visible">
      <path
         id="path4106"
         d="m 5.77,0 -8.65,5 0,-10 8.65,5 z"
         style="fill:#ffffff;fill-rule:evenodd;stroke:#000000;stroke-width:1pt"
         transform="matrix(-0.8,0,0,-0.8,4.8,0)"
         inkscape:connector-curvature="0" />
    </marker>
    <marker
       inkscape:stockid="Arrow2Lend"
       orient="auto"
       refY="0"
       refX="0"
       id="Arrow2Lend"
       style="overflow:visible">
      <path
         id="path3976"
         style="fill-rule:evenodd;stroke-width:0.625;stroke-linejoin:round"
         d="M 8.7185878,4.0337352 -2.2072895,0.01601326 8.7185884,-4.0017078 c -1.7454984,2.3720609 -1.7354408,5.6174519 -6e-7,8.035443 z"
         transform="matrix(-1.1,0,0,-1.1,-1.1,0)"
         inkscape:connector-curvature="0" />
    </marker>
    <marker
       inkscape:stockid="Arrow2Lstart"
       orient="auto"
       refY="0"
       refX="0"
       id="Arrow2Lstart"
       style="overflow:visible">
      <path
         id="path3973"
         style="fill-rule:evenodd;stroke-width:0.625;stroke-linejoin:round"
         d="M 8.7185878,4.0337352 -2.2072895,0.01601326 8.7185884,-4.0017078 c -1.7454984,2.3720609 -1.7354408,5.6174519 -6e-7,8.035443 z"
         transform="matrix(1.1,0,0,1.1,1.1,0)"
         inkscape:connector-curvature="0" />
    </marker>
    <inkscape:path-effect
       effect="skeletal"
       id="path-effect3166"
       is_visible="true"
       pattern="m 9.35827,0.5 c 4.90748,0 8.85826,3.950787 8.85826,8.858268 0,4.90748 -3.95078,8.858268 -8.85826,8.858268 C 4.45079,18.216536 0.5,14.265748 0.5,9.358268 0.5,4.450787 4.45079,0.5 9.35827,0.5 z"
       copytype="single_stretched"
       prop_scale="1"
       scale_y_rel="false"
       spacing="0"
       normal_offset="0"
       tang_offset="0"
       prop_units="false"
       vertical_pattern="false"
       fuse_tolerance="0" />
    <inkscape:path-effect
       effect="ruler"
       id="path-effect3151"
       is_visible="true"
       unit="px"
       mark_distance="20"
       mark_length="14"
       minor_mark_length="7"
       major_mark_steps="5"
       shift="0"
       offset="0"
       mark_dir="left"
       border_marks="both" />
    <inkscape:path-effect
       effect="knot"
       id="path-effect3149"
       is_visible="true"
       interruption_width="3"
       prop_to_stroke_width="true"
       add_stroke_width="true"
       add_other_stroke_width="true"
       switcher_size="15"
       crossing_points_vector="315.96487 | 574.01572 | 0 | 0 | 0 | 1 | 2.9777356e-13 | 9.9984026 | 1 | 315.96482 | 574.01572 | 0 | 0 | 9 | 10 | 9.9999002 | 10.0625 | 1 | 315.96483 | 574.01572 | 0 | 0 | 8 | 11 | 9.9997005 | 10.1875 | 1 | 315.96484 | 574.01572 | 0 | 0 | 7 | 12 | 9.9995008 | 10.3125 | 1 | 315.96484 | 574.01572 | 0 | 0 | 6 | 13 | 9.9993011 | 10.4375 | 1 | 315.96485 | 574.01572 | 0 | 0 | 5 | 14 | 9.9991014 | 10.5625 | 1 | 315.96485 | 574.01572 | 0 | 0 | 4 | 15 | 9.9989018 | 10.6875 | 1 | 315.96486 | 574.01572 | 0 | 0 | 3 | 16 | 9.9987021 | 10.8125 | 1 | 315.96487 | 574.01572 | 0 | 0 | 2 | 17 | 9.9985024 | 10.9375 | 1" />
    <inkscape:path-effect
       effect="construct_grid"
       id="path-effect3147"
       is_visible="true"
       nr_x="5"
       nr_y="5" />
    <inkscape:path-effect
       effect="envelope"
       id="path-effect3145"
       is_visible="true"
       yy="true"
       xx="true"
       bendpath1="M 156.18362,574.01572 726.37795,414.5669"
       bendpath2="m 690.94488,574.01572 15.23879,89.3125"
       bendpath3="M 761.81102,751.18107 706.18367,663.32822"
       bendpath4="M 212.59843,449.99997 124.01575,644.88186"
       bendpath1-nodetypes="cc"
       bendpath2-nodetypes="cc"
       bendpath3-nodetypes="cc"
       bendpath4-nodetypes="cc" />
    <inkscape:path-effect
       effect="rough_hatches"
       id="path-effect3143"
       is_visible="true"
       direction="431.18365,613.67197 , 137.50001,0"
       dist_rdm="1.3;1"
       growth="4.5"
       do_bend="true"
       bender="431.18365,618.67197 , 5,0"
       bottom_edge_variation="9;1"
       top_edge_variation="9;1"
       bottom_tgt_variation="0;2112278368"
       top_tgt_variation="0;1"
       scale_bf="1"
       scale_bb="1"
       scale_tf="1"
       scale_tb="1"
       top_smth_variation="0;1"
       bottom_smth_variation="0;1"
       fat_output="false"
       stroke_width_top="1"
       stroke_width_bottom="1"
       front_thickness="1"
       back_thickness="0.25" />
    <inkscape:path-effect
       effect="interpolate"
       id="path-effect3141"
       is_visible="true"
       trajectory="M 0,0 0,0"
       equidistant_spacing="true"
       steps="5" />
    <inkscape:path-effect
       effect="knot"
       id="path-effect3139"
       is_visible="true"
       interruption_width="3"
       prop_to_stroke_width="true"
       add_stroke_width="true"
       add_other_stroke_width="true"
       switcher_size="15"
       crossing_points_vector="315.96487 | 574.01572 | 0 | 0 | 0 | 1 | 2.9777356e-13 | 9.9984026 | 1 | 315.96482 | 574.01572 | 0 | 0 | 9 | 10 | 9.9999002 | 10.0625 | 1 | 315.96483 | 574.01572 | 0 | 0 | 8 | 11 | 9.9997005 | 10.1875 | 1 | 315.96484 | 574.01572 | 0 | 0 | 7 | 12 | 9.9995008 | 10.3125 | 1 | 315.96484 | 574.01572 | 0 | 0 | 6 | 13 | 9.9993011 | 10.4375 | 1 | 315.96485 | 574.01572 | 0 | 0 | 5 | 14 | 9.9991014 | 10.5625 | 1 | 315.96485 | 574.01572 | 0 | 0 | 4 | 15 | 9.9989018 | 10.6875 | 1 | 315.96486 | 574.01572 | 0 | 0 | 3 | 16 | 9.9987021 | 10.8125 | 1 | 315.96487 | 574.01572 | 0 | 0 | 2 | 17 | 9.9985024 | 10.9375 | 1" />
    <inkscape:path-effect
       effect="sketch"
       id="path-effect3137"
       is_visible="true"
       nbiter_approxstrokes="5"
       strokelength="100"
       strokelength_rdm="0.3;1"
       strokeoverlap="0.3"
       strokeoverlap_rdm="0.3;1"
       ends_tolerance="0.1;1"
       parallel_offset="5;1"
       tremble_size="5;1"
       tremble_frequency="1"
       nbtangents="5"
       tgt_places_rdmness="1;1"
       tgtscale="10"
       tgtlength="100"
       tgtlength_rdm="0.3;1" />
    <inkscape:path-effect
       effect="ruler"
       id="path-effect3135"
       is_visible="true"
       unit="px"
       mark_distance="20"
       mark_length="14"
       minor_mark_length="7"
       major_mark_steps="5"
       shift="0"
       offset="0"
       mark_dir="right"
       border_marks="end" />
    <inkscape:path-effect
       effect="construct_grid"
       id="path-effect3133"
       is_visible="true"
       nr_x="5"
       nr_y="5" />
    <inkscape:path-effect
       effect="knot"
       id="path-effect3131"
       is_visible="true"
       interruption_width="3"
       prop_to_stroke_width="true"
       add_stroke_width="true"
       add_other_stroke_width="true"
       switcher_size="15"
       crossing_points_vector="315.96487 | 574.01572 | 0 | 0 | 0 | 1 | 2.9777356e-13 | 9.9984026 | 1 | 315.96482 | 574.01572 | 0 | 0 | 9 | 10 | 9.9999002 | 10.0625 | 1 | 315.96483 | 574.01572 | 0 | 0 | 8 | 11 | 9.9997005 | 10.1875 | 1 | 315.96484 | 574.01572 | 0 | 0 | 7 | 12 | 9.9995008 | 10.3125 | 1 | 315.96484 | 574.01572 | 0 | 0 | 6 | 13 | 9.9993011 | 10.4375 | 1 | 315.96485 | 574.01572 | 0 | 0 | 5 | 14 | 9.9991014 | 10.5625 | 1 | 315.96485 | 574.01572 | 0 | 0 | 4 | 15 | 9.9989018 | 10.6875 | 1 | 315.96486 | 574.01572 | 0 | 0 | 3 | 16 | 9.9987021 | 10.8125 | 1 | 315.96487 | 574.01572 | 0 | 0 | 2 | 17 | 9.9985024 | 10.9375 | 1" />
    <inkscape:path-effect
       effect="ruler"
       id="path-effect3129"
       is_visible="true"
       unit="px"
       mark_distance="20"
       mark_length="14"
       minor_mark_length="7"
       major_mark_steps="5"
       shift="0"
       offset="0"
       mark_dir="left"
       border_marks="both" />
    <inkscape:path-effect
       effect="ruler"
       id="path-effect3127"
       is_visible="true"
       unit="px"
       mark_distance="20"
       mark_length="14"
       minor_mark_length="7"
       major_mark_steps="5"
       shift="0"
       offset="0"
       mark_dir="left"
       border_marks="both" />
    <inkscape:path-effect
       effect="ruler"
       id="path-effect3125"
       is_visible="true"
       unit="mm"
       mark_distance="20"
       mark_length="14"
       minor_mark_length="7"
       major_mark_steps="5"
       shift="0"
       offset="0"
       mark_dir="left"
       border_marks="both" />
    <inkscape:path-effect
       effect="sketch"
       id="path-effect3123"
       is_visible="true"
       nbiter_approxstrokes="5"
       strokelength="100"
       strokelength_rdm="0.3;1"
       strokeoverlap="0.3"
       strokeoverlap_rdm="0.3;1"
       ends_tolerance="0.1;1"
       parallel_offset="5;1"
       tremble_size="5;1"
       tremble_frequency="1"
       nbtangents="5"
       tgt_places_rdmness="1;1"
       tgtscale="10"
       tgtlength="100"
       tgtlength_rdm="0.3;1" />
    <inkscape:path-effect
       effect="spiro"
       id="path-effect3121"
       is_visible="true" />
    <inkscape:path-effect
       effect="curvestitching"
       id="path-effect3119"
       is_visible="true"
       count="11"
       startpoint_edge_variation="0.1;1768284574"
       startpoint_spacing_variation="0;1224847302"
       endpoint_edge_variation="0;1"
       endpoint_spacing_variation="0;1"
       strokepath="m 124.01575,115.15747 70.86614,0"
       prop_scale="1"
       scale_y_rel="false" />
    <inkscape:path-effect
       effect="vonkoch"
       id="path-effect3117"
       is_visible="true"
       ref_path="m 124.01575,115.15747 70.86614,0"
       generator="m 124.01575,124.01574 23.62205,0 m 23.62204,0 23.62205,0"
       similar_only="false"
       nbgenerations="1"
       drawall="true"
       maxComplexity="1000" />
    <inkscape:path-effect
       effect="gears"
       id="path-effect3115"
       is_visible="true"
       teeth="10"
       phi="5" />
    <inkscape:path-effect
       effect="skeletal"
       id="path-effect3053"
       is_visible="true"
       pattern="m 0.5,18.21653 17.71653,0 L 35.93307,0.5 53.6496,0.5 71.36614,18.21653"
       copytype="repeated"
       prop_scale="1"
       scale_y_rel="false"
       spacing="0"
       normal_offset="0"
       tang_offset="0"
       prop_units="false"
       vertical_pattern="false"
       fuse_tolerance="0" />
    <inkscape:path-effect
       effect="gears"
       id="path-effect3051"
       is_visible="true"
       teeth="10"
       phi="4.7" />
    <clipPath
       id="clipPath3442"
       clipPathUnits="userSpaceOnUse">
      <rect
         y="239.1203"
         x="171.99832"
         height="12.483703"
         width="20.614058"
         id="rect3444"
         style="fill:#000000;fill-opacity:1;stroke:none;stroke-width:0.92243534;stroke-miterlimit:4;stroke-dasharray:none;stroke-opacity:1" />
    </clipPath>
  </defs>
  <sodipodi:namedview
     id="base"
     pagecolor="#ffffff"
     bordercolor="#666666"
     borderopacity="1.0"
     inkscape:pageopacity="0.0"
     inkscape:pageshadow="2"
     inkscape:zoom="1.1262011"
     inkscape:cx="526.18109"
     inkscape:cy="372.04724"
     inkscape:document-units="mm"
     inkscape:current-layer="layer1"
     showgrid="true"
     units="mm"
     inkscape:showpageshadow="false"
     borderlayer="true"
     inkscape:window-width="1920"
     inkscape:window-height="1004"
     inkscape:window-x="0"
     inkscape:window-y="24"
     inkscape:window-maximized="1"
     inkscape:snap-bbox="true"
     inkscape:bbox-nodes="true">
    <inkscape:grid
       type="xygrid"
       id="grid2993"
       empspacing="5"
       visible="true"
       enabled="true"
       snapvisiblegridlinesonly="true"
       units="mm"
       spacingx="1mm"
       spacingy="1mm"
       dotted="false" />
  </sodipodi:namedview>
  <metadata
     id="metadata7">
    <rdf:RDF>
      <cc:Work
         rdf:about="">
        <dc:format>image/svg+xml</dc:format>
        <dc:type
           rdf:resource="http://purl.org/dc/dcmitype/StillImage" />
        <dc:title />
      </cc:Work>
    </rdf:RDF>
  </metadata>
  <g
     inkscape:label="Licence"
     inkscape:groupmode="layer"
     id="layer1"
     transform="translate(0,-308.26768)">
    <g
       id="g5435">
      <g
         transform="translate(949.54642,986.07909)"
         inkscape:label="Layer 1"
         id="layer1-0">
        <g
           id="BY"
           transform="matrix(0.9875019,0,0,0.9333518,-323.90064,-271.87688)">
          <g
             transform="translate(158,54)"
             id="g3693">
            <rect
               y="237.86218"
               x="170.5"
               height="15"
               width="80"
               id="rect3695"
               style="fill:#ffffff;fill-opacity:1;stroke:#000000;stroke-width:1.04161763;stroke-miterlimit:4;stroke-opacity:1;stroke-dasharray:none" />
            <rect
               style="fill:#000000;fill-opacity:1;stroke:none"
               id="rect3697"
               width="77"
               height="12"
               x="172"
               y="239.36218" />
            <path
               inkscape:connector-curvature="0"
               sodipodi:nodetypes="cccscc"
               id="path3699"
               d="m 171.99996,239.37505 0,12 20.33478,0 c 1.30865,-1.75031 2.19178,-3.78448 2.19178,-6 0,-2.20074 -0.86793,-4.25715 -2.16053,-6 l -20.36603,0 z"
               style="fill:#abb1aa;fill-opacity:1;stroke:none" />
            <g
               clip-path="url(#clipPath3442)"
               transform="matrix(0.9612533,0,0,0.9612533,6.8341566,9.5069994)"
               id="g3701">
              <path
                 inkscape:connector-curvature="0"
                 style="fill:#ffffff"
                 d="m 190.06417,245.36206 c 0.002,3.89199 -3.15091,7.04866 -7.04264,7.05117 -3.89174,0.002 -7.04891,-3.15067 -7.05117,-7.04263 0,-0.003 0,-0.006 0,-0.009 -0.002,-3.89199 3.1509,-7.04866 7.04264,-7.05093 3.89224,-0.002 7.04891,3.15068 7.05117,7.04267 0,0.002 0,0.005 0,0.008 z"
                 rx="22.939548"
                 type="arc"
                 cy="264.3577"
                 ry="22.939548"
                 cx="296.35416"
                 id="path3703" />
              <path
                 inkscape:connector-curvature="0"
                 id="path3705"
                 d="m 188.74576,239.62226 c 1.56267,1.56266 2.34412,3.47643 2.34412,5.7398 0,2.26386 -0.76791,4.15707 -2.30373,5.67959 -1.62988,1.60356 -3.5562,2.40507 -5.77893,2.40507 -2.1959,0 -4.08885,-0.795 -5.67835,-2.38498 -1.58975,-1.58976 -2.38451,-3.48948 -2.38451,-5.69968 0,-2.20971 0.79476,-4.12298 2.38451,-5.7398 1.54912,-1.56316 3.44207,-2.34462 5.67835,-2.34462 2.26338,0 4.1759,0.78145 5.73854,2.34462 z m -10.36483,1.05129 c -1.32115,1.33445 -1.98148,2.89761 -1.98148,4.69074 0,1.79265 0.65381,3.34253 1.96117,4.64964 1.3076,1.3076 2.86425,1.96116 4.67043,1.96116 1.80619,0 3.37611,-0.66007 4.71056,-1.98097 1.26699,-1.22687 1.90073,-2.76945 1.90073,-4.62983 0,-1.8463 -0.64403,-3.41345 -1.93133,-4.70075 -1.28705,-1.28705 -2.84695,-1.93084 -4.67996,-1.93084 -1.83301,1e-5 -3.38338,0.64705 -4.65012,1.94085 z m 3.47668,3.90204 c -0.20188,-0.44014 -0.50407,-0.66034 -0.9071,-0.66034 -0.71249,0 -1.06861,0.47976 -1.06861,1.43879 0,0.95924 0.35612,1.43851 1.06861,1.43851 0.47049,0 0.80654,-0.23347 1.00818,-0.70144 l 0.9876,0.5259 c -0.47074,0.83638 -1.17695,1.25467 -2.11866,1.25467 -0.72627,0 -1.3081,-0.22269 -1.74498,-0.66759 -0.43763,-0.44539 -0.65581,-1.05932 -0.65581,-1.84203 0,-0.76893 0.2252,-1.37935 0.67587,-1.8315 0.45067,-0.45218 1.01192,-0.67816 1.68479,-0.67816 0.99538,0 1.70811,0.39225 2.13897,1.17595 l -1.06886,0.54724 z m 4.64637,0 c -0.20214,-0.44014 -0.49831,-0.66034 -0.88881,-0.66034 -0.72678,0 -1.09043,0.47976 -1.09043,1.43879 0,0.95924 0.36365,1.43851 1.09043,1.43851 0.47125,0 0.80127,-0.23347 0.98963,-0.70144 l 1.00967,0.5259 c -0.46999,0.83638 -1.17521,1.25467 -2.11516,1.25467 -0.72528,0 -1.30585,-0.22269 -1.74248,-0.66759 -0.43587,-0.44539 -0.65429,-1.05932 -0.65429,-1.84203 0,-0.76893 0.22168,-1.37935 0.66483,-1.8315 0.44289,-0.45218 1.00667,-0.67816 1.69183,-0.67816 0.99362,0 1.70535,0.39225 2.1347,1.17595 l -1.08992,0.54724 z" />
            </g>
          </g>
          <path
             inkscape:connector-curvature="0"
             id="text3707"
             d="m 357.4197,298.68502 c 0.24548,10e-6 0.43161,-0.0536 0.5584,-0.16075 0.12678,-0.10716 0.19017,-0.26523 0.19018,-0.4742 -10e-6,-0.2063 -0.0634,-0.36303 -0.19018,-0.4702 -0.12679,-0.10984 -0.31292,-0.16476 -0.5584,-0.16477 l -0.86186,0 0,1.26992 0.86186,0 m 0.0526,2.62426 c 0.31292,0 0.5476,-0.0657 0.70407,-0.19693 0.15915,-0.13127 0.23873,-0.32953 0.23873,-0.59477 0,-0.25988 -0.0782,-0.45412 -0.23469,-0.58272 -0.15645,-0.13128 -0.39249,-0.19691 -0.70811,-0.19692 l -0.91446,0 0,1.57134 0.91446,0 m 1.44859,-2.15807 c 0.33449,0.0965 0.59345,0.27461 0.7769,0.53449 0.18342,0.25988 0.27514,0.57869 0.27515,0.95646 -10e-6,0.5787 -0.19694,1.01004 -0.59077,1.29404 -0.39384,0.28399 -0.9927,0.42598 -1.79657,0.42598 l -2.58559,0 0,-6 2.33877,0 c 0.83893,10e-6 1.44588,0.12593 1.82084,0.37777 0.37765,0.25185 0.56648,0.65506 0.56648,1.20964 0,0.29204 -0.0688,0.5412 -0.20635,0.74749 -0.13758,0.20362 -0.3372,0.355 -0.59886,0.45413 m 0.91657,-2.78903 1.7035,0 1.37575,2.13798 1.37574,-2.13798 1.70755,0 -2.30236,3.47221 0,2.52779 -1.55782,0 0,-2.52779 -2.30236,-3.47221"
             style="font-size:8.25858784px;font-style:normal;font-weight:bold;fill:#ffffff;fill-opacity:1;stroke:none;font-family:Bitstream Vera Sans" />
        </g>
      </g>
      <text
         sodipodi:linespacing="125%"
         id="text3194"
         y="1007.6992"
         x="1029.0403"
         style="font-size:4px;font-style:normal;font-weight:normal;text-align:end;line-height:125%;letter-spacing:0px;word-spacing:0px;text-anchor:end;fill:#000000;fill-opacity:1;stroke:none;font-family:Sans"
         xml:space="preserve"><tspan
           y="1007.6992"
           x="1029.0403"
           id="tspan3196"
           sodipodi:role="line">This work is licensed under the</tspan><tspan
           id="tspan3198"
           y="1012.6992"
           x="1030.3137"
           sodipodi:role="line">Creative Commons Attribution 3.0 Unported License. </tspan><tspan
           id="tspan3200"
           y="1017.6992"
           x="1030.3137"
           sodipodi:role="line">To view a copy of this license, visit </tspan><tspan
           id="tspan3202"
           y="1022.6992"
           x="1029.0403"
           sodipodi:role="line">http://creativecommons.org/licenses/by/3.0/.</tspan></text>
      <text
         sodipodi:linespacing="125%"
         id="text3204"
         y="974.40942"
         x="1027.5591"
         style="font-size:8px;font-style:normal;font-weight:bold;text-align:end;line-height:125%;letter-spacing:0px;word-spacing:0px;text-anchor:end;fill:#000000;fill-opacity:1;stroke:none;font-family:Sans;-inkscape-font-specification:Sans Bold"
         xml:space="preserve"><tspan
           y="974.40942"
           x="1027.5591"
           id="tspan3206"
           sodipodi:role="line">Created by Craig Russell</tspan><tspan
           id="tspan3208"
           y="984.40942"
           x="1027.5591"
           sodipodi:role="line" /></text>
      <text
         sodipodi:linespacing="125%"
         id="text3230"
         y="981.49603"
         x="1027.5591"
         style="font-size:6px;font-style:normal;font-weight:normal;text-align:end;line-height:125%;letter-spacing:0px;word-spacing:0px;text-anchor:end;fill:#000000;fill-opacity:1;stroke:none;font-family:Sans"
         xml:space="preserve"><tspan
           y="981.49603"
           x="1027.5591"
           id="tspan3232"
           sodipodi:role="line">craig-russell.co.uk</tspan></text>
    </g>
  </g>
</svg>
